<?xml version="1.0" encoding="utf-8"?>
<svg class="flight-path" version="1.1" xmlns="http://www.w3.org/2000/svg"
xmlns:xlink="http://www.w3.org/1999/xlink" x="0px" y="0px" viewBox="0 0 216.2 448.1"
style="enable-background:new 0 0 216.2 448.1;" xml:space="preserve">
<g id="Layer_2">
    <path class="cls-1 asscent" id="leg-1" style="stroke-linecap: round; stroke-linejoin: round;" fill="none"
    stroke="deeppink" stroke-width="5"
    d="M136,50.93a11.87,11.87,0,0,1,2-6.5c5.7-8.2,22.5-6.7,33.2-2.2,10.4,4.3,16.1,11.7,21.2,18.2,8.9,11.5,12.6,22.3,15.8,32a163.69,163.69,0,0,1,8,44.8,168.25,168.25,0,0,1-9.2,59,180.16,180.16,0,0,1-10.2,23.5c-7.8,15.1-15.5,25.3-24,36.5a387,387,0,0,1-26.5,31.5c-18.2,19.3-25.7,22.9-47.2,46.2-8.6,9.3-12.1,13.8-15.2,18.8-4.5,7.1-9.3,16.2-14.9,35.6-4.2,14.5-3.8,20.2-3.4,23.1a42.49,42.49,0,0,0,22.2,31.5" />
    <path class="cls-1 asscent" id="leg-2" style="stroke-linecap: round; stroke-linejoin: round;" fill="none"
    stroke="deeppink" stroke-width="5"
    d="M87.79,442.93a40.61,40.61,0,0,0,48.8-9.1c2.8-3.1,13.3-14.7,11-30.5-1.9-13.1-11.6-21-16.2-24.7-3.5-2.9-8-6.4-14.9-7.8-11.9-2.4-21.3,3.5-23.6,5a32.66,32.66,0,0,0-15.2,28c.1,12.2,7.3,23.8,17.6,29.8,2.6,1.5,11.2,6.4,21.6,3.9,12.2-3,17.9-13.9,19.5-17.1a30,30,0,0,0,3.9-17.4c-1.2-12.7-10.6-19.8-12.2-20.9-2.2-1.6-8.8-6.4-16.3-4.7-1.2.3-5.8,1.3-7.2,4.8-.8,2.1-.1,4.2.8,6.3,3.2,7.2,9,13.1,13.3,16.8" />
    <path class="cls-1 descent" id="leg-3" style="stroke-linecap: round; stroke-linejoin: round;" fill="none"
    stroke="darkturquoise" stroke-width="5"
    d="M118.69,405.33a43.9,43.9,0,0,0-1.2-8.1c-1.3-5.4-2.4-9.4-5.8-12.7a15.77,15.77,0,0,0-10-4.1,16.19,16.19,0,0,0-7.7,2.1,20.15,20.15,0,0,0-7.3,6.7,26.1,26.1,0,0,0-3.8,7.7,40.8,40.8,0,0,0-2.5,11,41.61,41.61,0,0,0,2.5,17.7,27.43,27.43,0,0,0,6,10,26,26,0,0,0,10,6.3c12.8,5.1,25,1,25.8.7A37.85,37.85,0,0,0,145,425a38.57,38.57,0,0,0,5-17.6c.1-2.6,0-6.9-2.3-14.6a93.44,93.44,0,0,0-15.6-30c-6.2-7.9-12-15.3-22.6-20.3-4.1-1.9-11.2-5.1-20.3-4a33.1,33.1,0,0,0-13.7,5,31.57,31.57,0,0,0-8.3,8,40.8,40.8,0,0,0-6.7,14.4c-.37,1.46-.64,2.87-.85,4.22" />
    <path class="cls-1 descent" id="leg-4" style="stroke-linecap: round; stroke-linejoin: round;" fill="none"
    stroke="darkturquoise" stroke-width="5"
    d="M59.64,370.15a51.57,51.57,0,0,0-.15,13.48c1,9.5,3.8,16.3,6.7,23s10.4,23.8,24.7,34.4a39.34,39.34,0,0,0,6,3.7c8.7,4.2,17,3.4,21,3,5.7-.6,18.5-1.9,28-12.6.6-.6,9.8-11.3,9.3-25.6a36.39,36.39,0,0,0-.5-5c-.6-4.4-2-12.5-9.8-32.1-2.7-6.7-4.3-10.7-7.1-16.4a160.74,160.74,0,0,0-9.4-16.7c-3.9-6.3-7.2-11.1-10.2-15.2-11.8-16.4-22.6-29.4-23.2-30.2-17.1-20.6-22.8-26.1-33.5-38.8-14-16.7-24.8-29.5-35.5-48-9.1-15.7-23.9-42.2-25.8-77.8a149.42,149.42,0,0,1,.7-23.7c1.1-10.3,3.8-33.9,19-58.7,5.8-9.5,12.7-20.7,26.3-30.3C61,6.23,75.29,3.73,85.89,1.93c10.1-1.7,42.3-6.6,72,11a106,106,0,0,1,19,14.7c7.2,6.6,17.7,16.5,25.7,32.7a99.48,99.48,0,0,1,9.3,31.3,110.68,110.68,0,0,1-5,47c-2.8,8.5-9.2,27-26.3,42.7a88.79,88.79,0,0,1-9.7,7.7c2.4.3-11.9,1.6-19.7-5a18,18,0,0,1-4.3-6c-1.3-2.5-3.1-6.6-3.7-21.7-.3-8.5-.5-14.3.7-22.3.7-4.5,1.6-8.3,2.3-11" />
</g>
</svg>